# xmcd CD database file
#
# Track frame offsets:
#	150
#	22760
#	38353
#	54273
#	65003
#	82995
#	100048
#	118100
#	134205
#	155195
#
# Disc length: 2230 seconds
#
# Revision: 1
# Processed by: cddbd v1.5.2PL0 Copyright (c) Steve Scherf et al.
# Submitted via: CDex 1.51
#
DISCID=7c08b40a
DTITLE=גבי שושן - שירים שאהבנו
DYEAR=1974
DGENRE=מזרחי
TTITLE0=להשתטות לפעמים
TTITLE1=אני חושב על הבית
TTITLE2=לילה בחוף אכזיב
TTITLE3=בת עשרה
TTITLE4=גברת שוש
TTITLE5=שיר לאוהבים הצעירים
TTITLE6=ילדה קטנה
TTITLE7=תודה לאבא ואמא
TTITLE8=בודדה
TTITLE9=בלוז הלילה הצעיר
EXTD=YEAR: 1974
EXTT0=
EXTT1=
EXTT2=
EXTT3=
EXTT4=
EXTT5=
EXTT6=
EXTT7=
EXTT8=
EXTT9=
PLAYORDER=
